<?xml version="1.0" encoding="utf-8"?>
<svg version="1.1" xmlns:xlink="http://www.w3.org/1999/xlink" width="32px" height="33px" xmlns="http://www.w3.org/2000/svg">
  <defs>
    <filter x="378px" y="1324px" width="32px" height="33px" filterUnits="userSpaceOnUse" id="filter57">
      <feOffset dx="1" dy="1" in="SourceAlpha" result="shadowOffsetInner" />
      <feGaussianBlur stdDeviation="2.5" in="shadowOffsetInner" result="shadowGaussian" />
      <feComposite in2="shadowGaussian" operator="atop" in="SourceAlpha" result="shadowComposite" />
      <feColorMatrix type="matrix" values="0 0 0 0 0  0 0 0 0 0  0 0 0 0 0  0 0 0 0.698039215686274 0  " in="shadowComposite" />
    </filter>
    <g id="widget58">
      <path d="M 393 1328  C 399.16 1328  404 1333.06  404 1339.5  C 404 1345.94  399.16 1351  393 1351  C 386.84 1351  382 1345.94  382 1339.5  C 382 1333.06  386.84 1328  393 1328  Z " fill-rule="nonzero" fill="#008000" stroke="none" />
      <path d="M 393 1328.5  C 398.88 1328.5  403.5 1333.34  403.5 1339.5  C 403.5 1345.66  398.88 1350.5  393 1350.5  C 387.12 1350.5  382.5 1345.66  382.5 1339.5  C 382.5 1333.34  387.12 1328.5  393 1328.5  Z " stroke-width="1" stroke="#ffffff" fill="none" />
    </g>
  </defs>
  <g transform="matrix(1 0 0 1 -378 -1324 )">
    <use xlink:href="#widget58" filter="url(#filter57)" />
    <use xlink:href="#widget58" />
  </g>
</svg>