<?xml version="1.0" encoding="utf-8"?>
<svg version="1.1" xmlns:xlink="http://www.w3.org/1999/xlink" width="32px" height="33px" xmlns="http://www.w3.org/2000/svg">
  <defs>
    <filter x="566px" y="1324px" width="32px" height="33px" filterUnits="userSpaceOnUse" id="filter59">
      <feOffset dx="1" dy="1" in="SourceAlpha" result="shadowOffsetInner" />
      <feGaussianBlur stdDeviation="2.5" in="shadowOffsetInner" result="shadowGaussian" />
      <feComposite in2="shadowGaussian" operator="atop" in="SourceAlpha" result="shadowComposite" />
      <feColorMatrix type="matrix" values="0 0 0 0 0  0 0 0 0 0  0 0 0 0 0  0 0 0 0.698039215686274 0  " in="shadowComposite" />
    </filter>
    <g id="widget60">
      <path d="M 581 1328  C 587.16 1328  592 1333.06  592 1339.5  C 592 1345.94  587.16 1351  581 1351  C 574.84 1351  570 1345.94  570 1339.5  C 570 1333.06  574.84 1328  581 1328  Z " fill-rule="nonzero" fill="#999999" stroke="none" />
      <path d="M 581 1328.5  C 586.88 1328.5  591.5 1333.34  591.5 1339.5  C 591.5 1345.66  586.88 1350.5  581 1350.5  C 575.12 1350.5  570.5 1345.66  570.5 1339.5  C 570.5 1333.34  575.12 1328.5  581 1328.5  Z " stroke-width="1" stroke="#ffffff" fill="none" />
    </g>
  </defs>
  <g transform="matrix(1 0 0 1 -566 -1324 )">
    <use xlink:href="#widget60" filter="url(#filter59)" />
    <use xlink:href="#widget60" />
  </g>
</svg>