<?xml version="1.0" encoding="utf-8"?>
<svg version="1.1" xmlns:xlink="http://www.w3.org/1999/xlink" width="34px" height="38px" xmlns="http://www.w3.org/2000/svg">
  <defs>
    <filter x="696px" y="955px" width="34px" height="38px" filterUnits="userSpaceOnUse" id="filter63">
      <feOffset dx="1" dy="1" in="SourceAlpha" result="shadowOffsetInner" />
      <feGaussianBlur stdDeviation="2.5" in="shadowOffsetInner" result="shadowGaussian" />
      <feComposite in2="shadowGaussian" operator="atop" in="SourceAlpha" result="shadowComposite" />
      <feColorMatrix type="matrix" values="0 0 0 0 0  0 0 0 0 0  0 0 0 0 0  0 0 0 0.698039215686274 0  " in="shadowComposite" />
    </filter>
    <g id="widget64">
      <path d="M 712 986.118268969337  C 707.4 979.457396288823  700.5 975.460872680514  700.5 968.8  C 700.5 965.345714285714  702.8 959.5  712 959.5  C 721.2 959.5  723.5 965.345714285714  723.5 968.8  C 723.5 975.460872680514  716.6 979.457396288823  712 986.118268969337  Z " fill-rule="nonzero" fill="#008000" stroke="none" />
      <path d="M 712 987  C 707.2 980  700 975.8  700 968.8  C 700 965.16  702.4 959  712 959  C 721.6 959  724 965.16  724 968.8  C 724 975.8  716.8 980  712 987  Z M 712 985.236537938674  C 716.4 978.914792577646  723 975.121745361029  723 968.8  C 723 965.531428571429  720.8 960  712 960  C 703.2 960  701 965.531428571429  701 968.8  C 701 975.121745361029  707.6 978.914792577646  712 985.236537938674  Z " fill-rule="nonzero" fill="#ffffff" stroke="none" />
    </g>
  </defs>
  <g transform="matrix(1 0 0 1 -696 -955 )">
    <use xlink:href="#widget64" filter="url(#filter63)" />
    <use xlink:href="#widget64" />
  </g>
</svg>