<?xml version="1.0" encoding="utf-8"?>
<svg version="1.1" xmlns:xlink="http://www.w3.org/1999/xlink" width="34px" height="38px" xmlns="http://www.w3.org/2000/svg">
  <defs>
    <filter x="616px" y="1147px" width="34px" height="38px" filterUnits="userSpaceOnUse" id="filter67">
      <feOffset dx="1" dy="1" in="SourceAlpha" result="shadowOffsetInner" />
      <feGaussianBlur stdDeviation="2.5" in="shadowOffsetInner" result="shadowGaussian" />
      <feComposite in2="shadowGaussian" operator="atop" in="SourceAlpha" result="shadowComposite" />
      <feColorMatrix type="matrix" values="0 0 0 0 0  0 0 0 0 0  0 0 0 0 0  0 0 0 0.698039215686274 0  " in="shadowComposite" />
    </filter>
    <g id="widget68">
      <path d="M 632 1178.11826896934  C 627.4 1171.45739628882  620.5 1167.46087268051  620.5 1160.8  C 620.5 1157.34571428571  622.8 1151.5  632 1151.5  C 641.2 1151.5  643.5 1157.34571428571  643.5 1160.8  C 643.5 1167.46087268051  636.6 1171.45739628882  632 1178.11826896934  Z " fill-rule="nonzero" fill="#c62038" stroke="none" />
      <path d="M 632 1179  C 627.2 1172  620 1167.8  620 1160.8  C 620 1157.16  622.4 1151  632 1151  C 641.6 1151  644 1157.16  644 1160.8  C 644 1167.8  636.8 1172  632 1179  Z M 632 1177.23653793867  C 636.4 1170.91479257765  643 1167.12174536103  643 1160.8  C 643 1157.53142857143  640.8 1152  632 1152  C 623.2 1152  621 1157.53142857143  621 1160.8  C 621 1167.12174536103  627.6 1170.91479257765  632 1177.23653793867  Z " fill-rule="nonzero" fill="#ffffff" stroke="none" />
    </g>
  </defs>
  <g transform="matrix(1 0 0 1 -616 -1147 )">
    <use xlink:href="#widget68" filter="url(#filter67)" />
    <use xlink:href="#widget68" />
  </g>
</svg>